PathFileType	4	(X/Y/Z)	/Users/itak/Documents/Research/Walk-IL/dataset/trc/00378_00012.trc
DataRate	CameraRate	NumFrames	NumMarkers	Units	OrigDataRate	OrigDataStartFrame	OrigNumFrames
100.000000	100.000000	4	54	mm	100.000000	302	346
Frame#	Time	RPSI			LPSI			L3			STRN			T10			C7			CLAV			RBAK			LBAK			LSHO			LUPA			LAEL			LAOL			LWTS			LWPS			LFRA			LIFD			LHPS			LHTS			RSHO			RUPA			RAEL			RAOL			RWTS			RWPS			RFRA			RIFD			RHTS			RHPS			RBHD			LFHD			RFHD			LBHD			RASI			LASI			LKNE			LTHI			LANK			LTIP			LTOE			LMT1			LMT5			LHEE			RKNE			RTHI			RANK			RTIP			RTOE			RMT1			RMT5			RHEE			LHIP			RHIP			*53			
		X1	Y1	Z1	X2	Y2	Z2	X3	Y3	Z3	X4	Y4	Z4	X5	Y5	Z5	X6	Y6	Z6	X7	Y7	Z7	X8	Y8	Z8	X9	Y9	Z9	X10	Y10	Z10	X11	Y11	Z11	X12	Y12	Z12	X13	Y13	Z13	X14	Y14	Z14	X15	Y15	Z15	X16	Y16	Z16	X17	Y17	Z17	X18	Y18	Z18	X19	Y19	Z19	X20	Y20	Z20	X21	Y21	Z21	X22	Y22	Z22	X23	Y23	Z23	X24	Y24	Z24	X25	Y25	Z25	X26	Y26	Z26	X27	Y27	Z27	X28	Y28	Z28	X29	Y29	Z29	X30	Y30	Z30	X31	Y31	Z31	X32	Y32	Z32	X33	Y33	Z33	X34	Y34	Z34	X35	Y35	Z35	X36	Y36	Z36	X37	Y37	Z37	X38	Y38	Z38	X39	Y39	Z39	X40	Y40	Z40	X41	Y41	Z41	X42	Y42	Z42	X43	Y43	Z43	X44	Y44	Z44	X45	Y45	Z45	X46	Y46	Z46	X47	Y47	Z47	X48	Y48	Z48	X49	Y49	Z49	X50	Y50	Z50	X51	Y51	Z51	X52	Y52	Z52	X53	Y53	Z53	X54	Y54	Z54	

303	3.02	1064.235473632812	972.2977905273438	149.4638214111328	1050.946899414062	963.8460693359375	19.12308502197266	1053.788330078125	1045.244384765625	87.97016143798828	1285.777954101562	1213.494262695312	67.63861846923828	1038.6875	1149.012451171875	85.6641845703125	1066.926513671875	1400.611206054688	77.62098693847656	1224.9462890625	1328.591430664062	72.12181091308594	1032.59375	1251.358276367188	145.610595703125	1042.89208984375	1363.383422851562	-21.85579681396484	1125.046875	1383.755859375	-79.40031433105469	1089.832885742188	1266.695190429688	-144.6391754150391	1098.190185546875	1071.941284179688	-174.1133728027344	1052.283813476562	1048.636962890625	-103.8518676757812	1217.18212890625	873.380126953125	-166.6147155761719	1151.723022460938	852.1533813476562	-213.1251983642578	1117.283325195312	971.0289306640625	-190.8029327392578	1241.27978515625	694.5741577148438	-183.2446594238281	1179.83154296875	769.8922729492188	-215.1427307128906	1240.760864257812	780.8981323242188	-197.4295349121094	1133.562255859375	1378.81494140625	231.8406829833984	1122.227661132812	1313.526489257812	289.9207153320312	1133.025024414062	1054.09423828125	338.6166076660156	1114.76513671875	1037.7548828125	246.4279479980469	1300.13525390625	870.0401611328125	315.1972351074219	1262.2373046875	851.2651977539062	375.9535522460938	1168.861694335938	993.8311767578125	356.1570129394531	1336.328491210938	701.4470825195312	318.1915588378906	1340.23974609375	771.9697265625	336.5827331542969	1284.26611328125	764.958740234375	375.9915771484375	1109.675415039062	1585.658325195312	161.8738250732422	1243.969970703125	1596.77587890625	13.91720771789551	1240.930053710938	1600.5986328125	137.0703277587891	1095.552978515625	1578.376586914062	1.422687530517578	1284.979614257812	969.10205078125	190.2743072509766	1245.256103515625	961.9351806640625	-69.84095001220703	1194.2021484375	467.8994750976562	-95.702880859375	1181.507690429688	610.5172119140625	-102.0150299072266	1091.5751953125	30.32477951049805	-65.32846832275391	1138.68603515625	237.8046264648438	-91.66972351074219	1302.818969726562	34.85943603515625	2.673990964889526	1223.433837890625	35.78704071044922	30.20907020568848	1219.081176757812	25.8676872253418	-74.52320098876953	1051.250610351562	30.66755485534668	-9.479632377624512	1205.276123046875	467.91162109375	225.1941223144531	1242.35986328125	731.0060424804688	250.1737060546875	1139.584106445312	47.30259704589844	201.4659423828125	1210.659423828125	340.270751953125	207.2267456054688	1304.55419921875	26.97962188720703	108.0655822753906	1225.347290039062	35.38420104980469	91.55250549316406	1223.290771484375	36.07777786254883	193.0285491943359	1058.759765625	34.65359115600586	161.6221466064453	1130.03271484375	958.297607421875	-101.2266845703125	1161.506103515625	952.899169921875	257.4238891601562	nan	nan	nan	
304	3.03	1065.723266601562	972.4392700195312	148.9965515136719	1052.185791015625	964.18017578125	18.62976837158203	1054.864624023438	1045.452514648438	87.35906982421875	1287.01806640625	1213.378295898438	66.96546173095703	1039.865112304688	1149.137939453125	84.89289093017578	1068.275756835938	1400.736328125	76.76593017578125	1226.307739257812	1328.546508789062	71.36691284179688	1033.713012695312	1251.60595703125	144.7339172363281	1044.266845703125	1363.501220703125	-22.73312950134277	1126.541381835938	1383.879150390625	-80.13819885253906	1091.718872070312	1266.87255859375	-145.7340087890625	1101.227905273438	1072.328979492188	-176.1380157470703	1055.26806640625	1048.49560546875	-106.0823287963867	1222.838012695312	875.6782836914062	-169.7849426269531	1157.6533203125	853.7120361328125	-216.3939056396484	1121.514892578125	971.8886108398438	-193.4136810302734	1250.022216796875	697.4948120117188	-188.0190887451172	1187.223999023438	772.0179443359375	-219.1385650634766	1248.185546875	784.3115234375	-201.6786346435547	1134.935546875	1378.76953125	231.0536804199219	1123.3759765625	1313.574096679688	289.0887451171875	1132.34619140625	1054.038818359375	337.2149047851562	1113.859130859375	1038.11083984375	245.1754455566406	1295.310668945312	866.2075805664062	313.2933654785156	1257.178344726562	848.30908203125	374.1739196777344	1167.172973632812	993.1243896484375	354.7398376464844	1327.09912109375	696.7398681640625	315.5078430175781	1332.960205078125	767.0551147460938	334.1506652832031	1277.030883789062	761.37158203125	373.8319396972656	1111.148193359375	1585.717163085938	160.9921569824219	1245.681396484375	1596.765502929688	13.31344223022461	1242.45556640625	1600.5546875	136.4586486816406	1097.289672851562	1578.474243164062	0.532541811466217	1286.218994140625	968.9551391601562	189.4079437255859	1246.264404296875	962.0034790039062	-70.80440521240234	1191.913818359375	467.9379577636719	-96.93572998046875	1181.322875976562	610.6427001953125	-103.0337905883789	1091.477172851562	30.15548324584961	-65.55298614501953	1137.198852539062	237.7713317871094	-92.4364013671875	1302.738891601562	34.87925338745117	2.677312612533569	1223.321655273438	35.78152084350586	30.16080284118652	1219.042846679688	25.77272796630859	-74.60755157470703	1051.235595703125	30.63811683654785	-9.647629737854004	1204.921875	468.0534362792969	225.4220886230469	1243.016235351562	731.181884765625	249.5995635986328	1139.518676757812	47.21472930908203	201.6473388671875	1210.312622070312	340.4359130859375	207.6526031494141	1304.357177734375	27.20335578918457	108.3383407592773	1225.353881835938	35.55951690673828	91.77700042724609	1223.257202148438	35.96034240722656	193.1565399169922	1058.710815429688	34.56801986694336	161.6985321044922	1130.602416992188	957.9163208007812	-101.4443206787109	1163.734008789062	952.9560546875	256.9770812988281	nan	nan	nan	
305	3.04	1067.32568359375	972.5662231445312	148.5593566894531	1053.451538085938	964.4697875976562	18.13664054870605	1055.96044921875	1045.596923828125	86.75841522216797	1288.206665039062	1213.260131835938	66.29772186279297	1040.973510742188	1149.20947265625	84.13630676269531	1069.5556640625	1400.814208984375	75.93791961669922	1227.601928710938	1328.479370117188	70.635009765625	1034.77880859375	1251.80322265625	143.8873596191406	1045.577758789062	1363.574462890625	-23.58638381958008	1127.933227539062	1383.948120117188	-80.85805511474609	1093.478637695312	1266.984130859375	-146.76416015625	1104.11376953125	1072.656372070312	-178.0576324462891	1058.214477539062	1048.305053710938	-108.1362991333008	1228.353759765625	877.9224243164062	-172.9223937988281	1163.384887695312	855.2391357421875	-219.5393371582031	1125.572631835938	972.6914672851562	-195.9148101806641	1258.515991210938	700.4242553710938	-192.7029571533203	1194.370971679688	774.1259765625	-223.0190277099609	1255.31103515625	787.55078125	-205.793701171875	1136.254760742188	1378.700561523438	230.2952880859375	1124.480712890625	1313.591552734375	288.2773132324219	1131.669677734375	1053.96044921875	335.7542419433594	1113.035278320312	1038.43017578125	243.8486328125	1290.436889648438	862.4480590820312	311.5206298828125	1251.992919921875	845.4553833007812	372.4696655273438	1165.451049804688	992.413330078125	353.3021240234375	1317.81201171875	692.22216796875	313.1463623046875	1325.590209960938	762.2944946289062	331.9794616699219	1269.670532226562	757.9622192382812	371.8548278808594	1112.591064453125	1585.774169921875	160.1217498779297	1247.360229492188	1596.703735351562	12.70135307312012	1243.954833984375	1600.478881835938	135.8414611816406	1098.982543945312	1578.549438476562	-0.3422209620475769	1287.432006835938	968.8003540039062	188.5740509033203	1247.314331054688	962.0535888671875	-71.75388336181641	1189.704711914062	467.9756469726562	-98.05695343017578	1181.28564453125	610.673095703125	-103.9290161132812	1091.3857421875	30.00943374633789	-65.7205810546875	1135.7470703125	237.7522735595703	-93.12322235107422	1302.671020507812	34.87611389160156	2.683959722518921	1223.235595703125	35.77384948730469	30.12721252441406	1219.009643554688	25.6988468170166	-74.67314910888672	1051.218383789062	30.6082878112793	-9.771742820739746	1204.559448242188	468.187255859375	225.6796264648438	1243.66064453125	731.3155517578125	249.1156005859375	1139.44921875	47.10896301269531	201.8429412841797	1209.959106445312	340.5947265625	208.1078491210938	1304.156127929688	27.46057510375977	108.6044158935547	1225.358764648438	35.72792053222656	92.01682281494141	1223.224609375	35.83095169067383	193.3077545166016	1058.65869140625	34.49325942993164	161.7835540771484	1131.302612304688	957.6678466796875	-101.7964172363281	1166.421630859375	952.9853515625	256.6905517578125	nan	nan	nan	
306	3.05	1068.986328125	972.7110595703125	148.12109375	1054.70849609375	964.7318725585938	17.62503433227539	1057.080078125	1045.669677734375	86.15599060058594	1289.343139648438	1213.146850585938	65.63736724853516	1042.020629882812	1149.231811523438	83.39613342285156	1070.7685546875	1400.849609375	75.137451171875	1228.826782226562	1328.396118164062	69.92885589599609	1035.797241210938	1251.93798828125	143.0696411132812	1046.828125	1363.604125976562	-24.41771697998047	1129.229125976562	1383.964111328125	-81.56177520751953	1095.130615234375	1267.0341796875	-147.7330322265625	1106.8671875	1072.917724609375	-179.8652648925781	1061.122436523438	1048.0595703125	-110.0241012573242	1233.72265625	880.1170654296875	-176.0247497558594	1168.913940429688	856.7194213867188	-222.5608825683594	1129.468505859375	973.433349609375	-198.2970275878906	1266.738403320312	703.3587646484375	-197.2736206054688	1201.2568359375	776.197509765625	-226.7691192626953	1262.138671875	790.640625	-209.7832946777344	1137.498901367188	1378.613891601562	229.5661163330078	1125.530151367188	1313.579956054688	287.4856262207031	1131.0126953125	1053.856567382812	334.2374267578125	1112.304809570312	1038.718994140625	242.4419860839844	1285.533203125	858.769287109375	309.8774108886719	1246.717529296875	842.7183227539062	370.847412109375	1163.711547851562	991.70068359375	351.8462829589844	1308.498291015625	687.8994140625	311.107666015625	1318.157104492188	757.6995849609375	330.0697937011719	1262.211669921875	754.7439575195312	370.0602416992188	1114.004028320312	1585.833618164062	159.2650146484375	1249.00390625	1596.592895507812	12.07726383209229	1245.426147460938	1600.37255859375	135.2172393798828	1100.630004882812	1578.602294921875	-1.201639294624329	1288.623779296875	968.6494140625	187.7679748535156	1248.398803710938	962.0604858398438	-72.67609405517578	1187.56201171875	468.0199279785156	-99.05680847167969	1181.267700195312	610.6251220703125	-104.7292098999023	1091.304443359375	29.88540649414062	-65.83191680908203	1134.339599609375	237.7363433837891	-93.72357940673828	1302.615966796875	34.8515510559082	2.696548223495483	1223.171997070312	35.76153182983398	30.10684204101562	1218.982055664062	25.64652442932129	-74.72057342529297	1051.198974609375	30.57543182373047	-9.851641654968262	1204.175048828125	468.3159790039062	225.9611663818359	1244.29736328125	731.405029296875	248.6986083984375	1139.376220703125	46.98575210571289	202.0482940673828	1209.587646484375	340.7531433105469	208.5875701904297	1303.96728515625	27.74831390380859	108.8555450439453	1225.359619140625	35.89277648925781	92.26496124267578	1223.192504882812	35.6795768737793	193.4878234863281	1058.608520507812	34.43195343017578	161.8800811767578	1132.14111328125	957.5469970703125	-102.2796020507812	1169.52001953125	953.007568359375	256.5350036621094	nan	nan	nan	
